<?xml version="1.0" encoding="UTF-8"?>
<svg id="Layer_1" xmlns="http://www.w3.org/2000/svg" xmlns:xlink="http://www.w3.org/1999/xlink" viewBox="0 0 377.9 353.8">
  <defs>
    <style>
      .cls-1 {
        fill: none;
      }

      .cls-2 {
        fill: #909090;
      }

      .cls-3 {
        fill: #fff;
      }

      .cls-4 {
        fill: #5ac7da;
      }

      .cls-5 {
        fill: #d4e05a;
      }

      .cls-6 {
        fill: #ae7c5b;
      }

      .cls-7 {
        fill: #faa32f;
      }

      .cls-8 {
        opacity: .4;
      }

      .cls-9 {
        opacity: .6;
      }

      .cls-10 {
        opacity: .5;
      }

      .cls-11 {
        opacity: .2;
      }

      .cls-12 {
        opacity: .3;
      }

      .cls-13 {
        opacity: .1;
      }

      .cls-14 {
        fill: #252468;
      }

      .cls-15 {
        fill: #ffce07;
      }

      .cls-16 {
        fill: #fdfefe;
      }

      .cls-17 {
        fill: #707071;
      }

      .cls-18 {
        fill: #86ca8f;
      }

      .cls-19 {
        clip-path: url(#clippath);
      }
    </style>
    <clipPath id="clippath">
      <rect class="cls-1" x="2.9" y="73.25" width="375" height="280.56"/>
    </clipPath>
  </defs>
  <g class="cls-19">
    <g>
      <g>
        <path class="cls-18" d="M261.98,318.88c32.01-22.45,52.94-59.63,52.94-101.7,0-68.56-55.58-124.14-124.14-124.14s-124.14,55.58-124.14,124.14c0,42.06,20.92,79.23,52.92,101.68,21.52-.31,45.45-.49,70.66-.49s49.96.18,71.76.5Z"/>
        <g class="cls-12">
          <path class="cls-14" d="M360.36,323.8c0-2.99-76.18-5.42-170.14-5.42s-170.14,2.43-170.14,5.42c0,1.73,25.46,3.27,65.09,4.27,8.55,1.94,41.71,3.39,81.31,3.39,33.16,0,61.81-1.01,75.26-2.48,68.78-.7,118.63-2.75,118.63-5.17Z"/>
        </g>
        <path class="cls-14" d="M35.82,319.57s1.21-.21,3.47-.45c2.26-.25,5.58-.53,9.8-.69,4.22-.15,9.35-.24,15.23-.23,5.88.02,12.51.14,19.75.14,28.95,0,67.55,0,106.15,0h106.15c7.24,0,13.87,0,19.75,0,2.94,0,5.69-.07,8.24-.11,2.54-.04,4.88-.03,6.99.03,2.11.06,4,.14,5.64.27,1.64.13,3.03.28,4.17.44,2.26.31,3.47.61,3.47.61.34.08.54.43.46.76-.06.24-.24.41-.46.46,0,0-1.21.3-3.47.61-1.13.15-2.53.31-4.17.44-1.64.13-3.52.21-5.64.27-2.11.06-4.45.07-6.99.03-2.54-.04-5.3-.1-8.24-.11-5.88,0-12.51,0-19.75,0h-106.15c-38.6,0-77.2,0-106.15,0-7.24,0-13.87.13-19.75.14-5.88.01-11.01-.08-15.23-.23-4.22-.16-7.54-.44-9.8-.69-2.26-.24-3.47-.45-3.47-.45-.34-.06-.57-.38-.51-.72.05-.27.26-.46.51-.51Z"/>
      </g>
      <g>
        <g>
          <path class="cls-2" d="M61.5,307.96l2.07,5.87c.38,1.09,1.34,1.89,2.48,2.07l2.07.33c1.04.16,2.09-.2,2.8-.97l6.18-6.67-9.92-6.15-5.69,5.52Z"/>
          <path class="cls-14" d="M68.54,317.94h0c-.23,0-.46-.02-.68-.06l-2.07-.33c-1.75-.28-3.21-1.49-3.8-3.16l-2.07-5.87c-.22-.61-.06-1.3.41-1.75l5.69-5.52c.55-.53,1.39-.63,2.04-.22l9.92,6.15c.42.26.71.7.78,1.2.07.49-.09.99-.43,1.36l-6.18,6.67c-.93,1-2.24,1.56-3.61,1.54ZM63.43,308.41l1.71,4.86c.18.51.63.89,1.17.97l2.07.33c.48.08.99-.1,1.32-.46l4.8-5.18-7.09-4.4-3.98,3.87Z"/>
        </g>
        <g class="cls-8">
          <path class="cls-14" d="M67.18,302.44l-.67.65,7.23,4.48-6.18,6.67c-.71.77-1.77,1.13-2.8.97l-.27-.04c.44.38.98.64,1.57.73l2.07.33c1.04.16,2.09-.2,2.8-.97l6.18-6.67-9.92-6.15Z"/>
        </g>
        <g class="cls-10">
          <path class="cls-3" d="M67.76,314.25c-.53-.08-.97-.45-1.15-.96l-1.71-4.85,3.41-3.31-.9-.56-3.96,3.85,1.71,4.85c.18.51.62.87,1.15.96l2.07.33c.26.04.52,0,.76-.09l-1.38-.22Z"/>
        </g>
        <g>
          <path class="cls-2" d="M79.43,311.34l2.7,5.15c.66,1.25,1.95,2.04,3.36,2.06l1.32.02c1.28.01,2.48-.61,3.21-1.66l4.94-7.19-10.71-4.65-4.83,6.29Z"/>
          <path class="cls-14" d="M85.45,320.22c-2.02-.03-3.86-1.16-4.8-2.95l-2.7-5.15c-.3-.58-.24-1.28.15-1.79l4.83-6.29c.47-.61,1.29-.82,1.99-.51l10.71,4.65c.46.2.8.59.94,1.07.14.48.05,1-.23,1.41l-4.94,7.19c-1.04,1.52-2.76,2.41-4.61,2.39l-1.34-.02ZM81.4,311.51l2.21,4.2c.37.71,1.09,1.15,1.89,1.16l1.33.02c.72,0,1.4-.34,1.81-.94l3.8-5.52-7.65-3.33-3.38,4.4Z"/>
        </g>
        <g class="cls-8">
          <path class="cls-14" d="M84.26,305.05l-.66.86,7.5,3.26-4.94,7.19c-.61.89-1.57,1.47-2.62,1.62.58.35,1.25.55,1.95.56l1.32.02c1.28.01,2.48-.61,3.21-1.66l4.94-7.19-10.71-4.65Z"/>
        </g>
        <g class="cls-10">
          <path class="cls-3" d="M85.08,315.73l-2.2-4.19,3.02-3.93-1.1-.48-3.36,4.38,2.2,4.19c.37.7,1.08,1.14,1.87,1.15h0s1.29.01,1.29.01c-.73-.06-1.37-.49-1.71-1.14Z"/>
        </g>
        <g>
          <path class="cls-2" d="M97.44,311.6l2.81,5.35c.59,1.13,1.75,1.84,3.02,1.85l1.76.02c1.15.01,2.24-.55,2.89-1.5l5.06-7.36-10.71-4.65-4.83,6.29Z"/>
          <path class="cls-14" d="M103.24,320.48c-1.88-.03-3.59-1.08-4.47-2.74l-2.81-5.35c-.3-.58-.24-1.28.15-1.79l4.83-6.29c.47-.61,1.29-.82,1.99-.51l10.71,4.65c.46.2.8.59.94,1.07.14.48.05,1-.23,1.41l-5.06,7.36c-.97,1.41-2.57,2.24-4.28,2.22l-1.76-.02h-.02ZM99.42,311.77l2.31,4.41c.3.58.9.95,1.56.96l-.02,1.67.03-1.67,1.76.02c.6,0,1.16-.28,1.49-.77l3.91-5.69-7.65-3.33-3.38,4.4Z"/>
        </g>
        <g class="cls-8">
          <path class="cls-14" d="M102.27,305.32l-.94,1.22,7.78,3.38-5.06,7.36c-.45.65-1.1,1.12-1.84,1.34.34.11.69.18,1.06.19l1.76.02c1.15.01,2.24-.55,2.89-1.5l5.06-7.36-10.71-4.65Z"/>
        </g>
        <g class="cls-10">
          <path class="cls-3" d="M102.72,316.19l-2.31-4.39,3.13-4.08-.74-.32-3.36,4.38,2.31,4.39c.3.57.89.94,1.54.95h0s.83,0,.83,0c-.6-.05-1.13-.4-1.41-.93Z"/>
        </g>
        <g>
          <path class="cls-2" d="M116.26,311.88l2.66,5.07c.68,1.3,2.02,2.12,3.48,2.13h1.16c1.33.03,2.58-.62,3.33-1.71l4.9-7.13-10.71-4.65-4.83,6.29Z"/>
          <path class="cls-14" d="M122.37,320.75c-2.07-.03-3.96-1.19-4.93-3.03l-2.66-5.07c-.3-.58-.24-1.28.15-1.79l4.83-6.29c.47-.61,1.29-.82,1.99-.51l10.71,4.65c.46.2.8.59.94,1.07.14.48.05,1-.23,1.41l-4.9,7.13c-1.07,1.56-2.84,2.47-4.73,2.45h-1.18ZM118.23,312.05l2.17,4.13c.39.75,1.17,1.23,2.02,1.24h1.17c.77.02,1.5-.35,1.93-.99l3.75-5.46-7.65-3.33-3.38,4.4Z"/>
        </g>
        <g class="cls-8">
          <path class="cls-14" d="M121.09,305.59l-.94,1.22,7.78,3.38-4.9,7.13c-.49.71-1.18,1.22-1.97,1.5.43.16.88.26,1.35.26h1.16c1.33.03,2.58-.62,3.33-1.71l4.9-7.13-10.71-4.65Z"/>
        </g>
        <g class="cls-10">
          <path class="cls-3" d="M121.87,316.19l-2.16-4.11,3.02-3.93-1.1-.48-3.36,4.38,2.16,4.11c.39.75,1.16,1.22,2,1.23h0s1.16.01,1.16.01c.02,0,.04,0,.07,0-.75-.08-1.42-.53-1.78-1.21Z"/>
        </g>
        <g>
          <path class="cls-2" d="M158.7,318.02l2.76.04c1.35.02,2.56-.86,2.96-2.15l1.42-4.59,6.61.1,2.86,4.5c.78,1.23,2.13,1.98,3.58,2l1.87.03c1.81.03,3.44-1.07,4.09-2.76l4.94-12.73-40.08,2.62,6.36,11.38c.53.95,1.53,1.55,2.62,1.56Z"/>
          <path class="cls-14" d="M161.43,319.75l-2.76-.04c-1.69-.02-3.25-.96-4.07-2.43l-6.36-11.38c-.28-.51-.29-1.12,0-1.63.28-.51.8-.84,1.38-.88l40.08-2.62c.58-.04,1.13.22,1.47.69.34.47.42,1.07.21,1.61l-4.94,12.73c-.91,2.33-3.19,3.87-5.69,3.84l-1.87-.03c-2.03-.03-3.9-1.07-4.99-2.79l-2.37-3.73-4.43-.06-1.05,3.39c-.62,2-2.51,3.37-4.6,3.34ZM152.5,306.58l5.05,9.04c.24.42.68.69,1.17.7l2.76.04c.6,0,1.14-.39,1.32-.96l1.42-4.59c.22-.72.89-1.2,1.64-1.19l6.61.1c.57,0,1.1.3,1.4.78l2.86,4.5c.48.75,1.29,1.21,2.18,1.22l1.87.03c1.09.02,2.09-.66,2.49-1.68l3.98-10.25-34.76,2.27Z"/>
        </g>
        <g class="cls-8">
          <path class="cls-14" d="M160.55,315.85c-.34,1.11-1.28,1.91-2.4,2.1.18.04.36.06.55.06l2.76.04c1.35.02,2.56-.86,2.96-2.15l1.42-4.59-3.87-.06-1.42,4.59Z"/>
        </g>
        <g class="cls-8">
          <path class="cls-14" d="M185.8,302.71l-4.82,12.41c-.53,1.37-1.72,2.34-3.11,2.65.33.09.67.13,1.02.14l1.87.03c1.81.03,3.44-1.07,4.09-2.76l4.94-12.73-3.99.26Z"/>
        </g>
        <g class="cls-8">
          <path class="cls-3" d="M159,315.65l-5.05-9.04,33.26-2.17.05-.12-34.76,2.27,5.05,9.04c.24.42.68.69,1.17.7l1.45.02c-.48,0-.93-.27-1.17-.7Z"/>
        </g>
        <g class="cls-8">
          <path class="cls-3" d="M178.18,315.02l-2.86-4.5c-.31-.48-.83-.78-1.4-.78l-1.45-.02c.57,0,1.1.3,1.4.78l2.86,4.5c.48.75,1.29,1.21,2.18,1.22l1.45.02c-.89-.01-1.7-.47-2.18-1.22Z"/>
        </g>
        <g>
          <path class="cls-4" d="M152.1,264.66s11.82,13.39,24.26,11.16c0,0,12.25-2.43,14.41-13.2,0,0,16.11,21.46,6.23,39.73,0,0,.29,7.61-4.93,8.34,0,0-46.42-2.28-66.87-.17,0,0-47.69,3.52-67.06-3.79-5.44-2.05-7.78-8.56-4.78-13.53,2.16-3.57,7.03-6.97,17.36-8.29,0,0,48.6-10.51,65.59-21.87,0,0,7.66-3.49,15.79,1.63Z"/>
          <path class="cls-14" d="M94.97,313.01c-17.2-.25-29.79-1.83-37.41-4.71-3.09-1.17-5.49-3.63-6.57-6.76-1.07-3.08-.72-6.43.95-9.2,2.91-4.81,9.13-7.87,18.5-9.08,2.08-.45,48.71-10.75,64.94-21.61.08-.05.15-.09.24-.13.12-.06,3.06-1.37,7.24-1.31,3.6.05,7,1.08,10.13,3.05.13.08.26.19.36.31.09.11,9.59,10.7,19.94,10.85.93.01,1.86-.06,2.75-.22.19-.04,2.99-.65,5.95-2.41,3.94-2.34,6.34-5.53,7.13-9.48.13-.65.63-1.16,1.27-1.3.64-.15,1.31.1,1.71.63.17.23,4.21,5.65,7.05,13.44,1.68,4.61,2.59,9.1,2.71,13.33.14,5.21-.94,10.04-3.19,14.38-.01.76-.1,2.32-.57,3.95-.94,3.24-3,5.24-5.79,5.63-.1.01-.21.02-.31.01-.15,0-15.32-.74-31.91-.99-15.62-.23-27.3.04-34.71.81-.02,0-.03,0-.05,0-.14.01-14.44,1.05-30.36.82ZM137.1,264.51c-7.22,4.79-20.51,9.94-39.5,15.33-14.16,4.02-26.41,6.67-26.53,6.7-.05.01-.09.02-.14.02-8.35,1.07-13.78,3.59-16.14,7.5-1.16,1.91-1.39,4.24-.65,6.38.76,2.19,2.43,3.92,4.59,4.73,7.15,2.7,19.7,4.25,36.28,4.49,15.47.22,29.4-.76,30.05-.81,7.54-.77,19.34-1.05,35.07-.82,15.68.23,30.11.9,31.85.98,3.48-.64,3.35-6.54,3.35-6.6-.01-.3.06-.59.2-.86,3.85-7.12,4.02-15.62.52-25.27-1.49-4.12-3.38-7.58-4.75-9.84-1.49,3.34-4.1,6.15-7.69,8.26-3.53,2.07-6.78,2.73-6.91,2.76-.01,0-.02,0-.03,0-1.11.2-2.26.29-3.41.27-5.01-.07-10.32-2.12-15.76-6.09-3.46-2.52-5.83-5-6.47-5.7-2.55-1.56-5.31-2.37-8.21-2.42s-5.21.77-5.71.97Z"/>
        </g>
        <g class="cls-10">
          <path class="cls-3" d="M176.12,279.74c1.13.02,2.29-.07,3.45-.28.45-.09,9.39-1.95,13.75-9.32-.72-1.41-1.41-2.63-2.01-3.63-3.9,8.75-14.12,10.87-14.61,10.97-1.16.21-2.31.29-3.45.28-4.97-.07-9.63-2.1-13.4-4.47,4.13,3.1,9.95,6.35,16.27,6.44Z"/>
        </g>
        <g class="cls-10">
          <path class="cls-3" d="M151.01,265.97c-6.72-4.12-12.95-1.83-13.89-1.45-17.17,11.38-64.05,21.6-66.04,22.03-.04,0-.09.02-.13.02-2.33.3-4.42.71-6.29,1.23-4.84,1.35-8.14,3.44-9.85,6.26-.07.11-.12.23-.18.34-.99,1.84-1.17,4.01-.47,6.02.75,2.15,2.38,3.85,4.49,4.68-.71-.77-1.26-1.68-1.62-2.7-.74-2.13-.5-4.45.65-6.36.32-.53.7-1.03,1.13-1.5.87-.22,1.81-.55,2.77-.98,2.23-1,3.99-2.3,4.79-3.42,2.14-.69,4.62-1.22,7.43-1.58.05,0,.1-.01.14-.02.45-.1,3.21-.7,7.41-1.7l7.08,18.47-3.8-16.62c-.32-1.39.53-2.77,1.91-3.12,15.63-3.91,41.6-11.21,53.44-19.06.85-.35,5.98-2.23,11.91.41-.41-.42-.72-.74-.89-.94Z"/>
        </g>
        <g>
          <path class="cls-5" d="M72.37,285.5l8.08,20.9,8.22.12-9.34-22.86-6.96,1.85Z"/>
          <g class="cls-10">
            <path class="cls-3" d="M79.7,284.56c-3.11.75-5.56,1.31-7.05,1.65l.92,2.38c.08-.01.16-.02.24-.03.05,0,.1-.01.14-.02.43-.09,2.92-.64,6.74-1.54l-.99-2.43Z"/>
          </g>
          <g class="cls-11">
            <path class="cls-14" d="M196.29,307.65c-20.22-3.59-59.45-2.38-59.84-2.37-.02,0-.04,0-.05,0-50.15,4.4-82.58-3.33-82.9-3.41-.52-.13-1.04.19-1.17.71-.13.52.19,1.04.71,1.17.24.06,18.2,4.34,47.99,4.78,10.46.15,22.39-.17,35.51-1.32,1.21-.04,39.61-1.18,59.41,2.34.53.1,1.03-.26,1.12-.78.09-.53-.26-1.03-.78-1.12Z"/>
          </g>
          <path class="cls-14" d="M100.82,307.56c-10.1-.15-18.59-.73-25.12-1.37-14.34-1.41-22.56-3.39-22.64-3.41-.51-.13-.83-.64-.7-1.15.13-.51.64-.83,1.15-.7.08.02,8.21,1.98,22.43,3.37,13.12,1.28,34.27,2.33,60.47.03.02,0,.04,0,.05,0,.39-.01,39.62-1.22,59.84,2.37.52.09.87.59.77,1.11-.09.52-.59.86-1.11.77-19.81-3.52-58.22-2.38-59.42-2.34-13.34,1.17-25.38,1.48-35.73,1.32Z"/>
          <g>
            <path class="cls-3" d="M80.45,305.66l-8.52-20.94,8.52,20.94Z"/>
            <path class="cls-14" d="M80.43,306.63c-.38,0-.73-.23-.88-.6l-8.52-20.94c-.2-.49.04-1.06.53-1.26.49-.2,1.06.04,1.26.53l8.52,20.94c.2.49-.04,1.06-.53,1.26-.12.05-.25.07-.38.07Z"/>
          </g>
          <g>
            <path class="cls-3" d="M78.99,283.43l9.05,22.35-9.05-22.35Z"/>
            <path class="cls-14" d="M88.02,306.74c-.38,0-.73-.23-.88-.6l-9.05-22.35c-.2-.49.04-1.06.53-1.26.49-.2,1.06.04,1.26.53l9.05,22.35c.2.49-.04,1.06-.53,1.26-.12.05-.25.07-.38.07Z"/>
          </g>
        </g>
        <g>
          <path class="cls-5" d="M134.52,262.41l3.8,3.63c1.05,1,2.6,1.28,3.93.69l10.45-4.59c.85-.37,1.27-1.34.96-2.22-.21-.58-.46-1.28-.73-2-.99-2.67-4.01-3.98-6.64-2.88l-13.74,5.74,1.98,1.63Z"/>
          <path class="cls-14" d="M140.73,268.24h0c-1.22-.02-2.37-.49-3.25-1.33l-3.77-3.6-1.94-1.6c-.33-.27-.49-.69-.43-1.11.06-.42.34-.78.73-.94l13.74-5.74c.8-.33,1.63-.49,2.49-.48,2.59.04,4.85,1.63,5.75,4.06.29.8.54,1.47.73,2.01.52,1.46-.18,3.1-1.61,3.73l-10.45,4.59c-.63.28-1.31.42-2,.41ZM134.85,261.12l.43.36s.05.04.07.06l3.8,3.63c.44.42,1.01.65,1.61.66h0c.34,0,.68-.06.99-.2l10.45-4.59c.27-.12.4-.43.3-.7-.19-.53-.43-1.2-.72-1.98-.55-1.49-1.93-2.46-3.52-2.48-.52,0-1.03.09-1.52.3l-11.89,4.96Z"/>
        </g>
        <g class="cls-10">
          <path class="cls-3" d="M135.35,261.53l.6.57,10.77-4.5c.97-.4,2.03-.4,2.99.02.96.42,1.69,1.19,2.05,2.17.16.43.31.84.45,1.23.26-.12.39-.42.29-.7-.21-.58-.46-1.27-.72-1.98-.36-.98-1.09-1.75-2.05-2.17-.96-.42-2.02-.42-2.99-.02l-11.89,4.96.43.36s.05.04.07.06Z"/>
        </g>
        <g>
          <g>
            <path class="cls-16" d="M138.26,267.16c-1.68-1.56-4.5-3.54-8.16-3.62,0,0-1.17-2.42,1.24-2.78,0,0,6.02-1.11,10.75,4.56l-.76,1.36c-.63,1.11-2.13,1.36-3.06.49Z"/>
            <path class="cls-14" d="M139.54,268.65c-.72-.01-1.41-.29-1.95-.78-1.6-1.49-4.2-3.28-7.53-3.36-.36,0-.69-.22-.85-.55-.08-.16-.74-1.62-.1-2.85.26-.49.83-1.12,2.05-1.31.12-.02.7-.11,1.6-.1,2.23.03,6.49.72,10.05,5,.26.31.3.74.1,1.09l-.76,1.36c-.53.94-1.53,1.52-2.62,1.5ZM130.81,262.61c3.6.3,6.37,2.23,8.11,3.84.23.21.48.26.65.26.37,0,.72-.19.9-.52l.43-.76c-2.96-3.23-6.35-3.78-8.15-3.8-.76-.01-1.24.07-1.24.07,0,0-.02,0-.03,0-.24.04-.55.12-.64.3-.08.15-.07.38-.03.6Z"/>
          </g>
          <g>
            <path class="cls-16" d="M132.9,263.58l-.45,6.91c-.04.63-.53,1.14-1.16,1.2l-1.04.1c-.75.07-1.37-.58-1.26-1.33l1.06-7.21s1.66-.49,2.85.33h0Z"/>
            <path class="cls-14" d="M130.1,272.76c-.61,0-1.19-.28-1.59-.75-.4-.47-.57-1.08-.48-1.69l1.06-7.21c.05-.37.32-.68.69-.79.07-.02.68-.19,1.48-.18.85.01,1.59.23,2.2.64.28.19.44.52.42.86l-.45,6.91c-.07,1.11-.93,1.99-2.03,2.1l-1.04.1c-.08,0-.16.01-.24,0ZM130.9,264.09l-.96,6.52c0,.06,0,.11.04.15.02.03.08.08.17.07l1.04-.1c.16-.02.28-.14.29-.3l.4-6.26c-.2-.06-.42-.09-.67-.09-.11,0-.22,0-.32.01Z"/>
          </g>
          <g>
            <path class="cls-16" d="M129.67,265.54s-3.87-1.2-6.81-1.11c-1.35.04-2.5.99-2.85,2.29l-.39,1.48,9.6.54.45-3.2Z"/>
            <path class="cls-14" d="M129.21,269.7s-.03,0-.04,0l-9.6-.54c-.29-.02-.56-.16-.73-.4-.17-.24-.23-.53-.15-.82l.39-1.48c.46-1.72,2-2.95,3.75-3.01.17,0,.35,0,.54,0,2.96.04,6.44,1.11,6.59,1.16.45.14.74.59.67,1.06l-.45,3.2c-.07.48-.49.84-.97.83ZM120.86,267.3l7.53.42.21-1.48c-1.15-.31-3.37-.82-5.26-.85-.15,0-.31,0-.45,0-.91.03-1.7.67-1.94,1.57l-.09.33Z"/>
          </g>
          <g>
            <path class="cls-16" d="M119.99,268.24l-2.01,5.79c-.22.63.28,1.29.95,1.23l1.7-.13c.78-.06,1.45-.59,1.67-1.34l1.62-5.34-3.93-.22Z"/>
            <path class="cls-14" d="M118.83,276.23c-.61,0-1.18-.31-1.52-.81-.35-.5-.44-1.14-.24-1.71l2.01-5.79c.14-.41.54-.67.97-.65l3.93.22c.3.02.57.17.74.41.17.24.22.55.13.84l-1.62,5.34c-.35,1.14-1.34,1.93-2.52,2.02l-1.7.13c-.06,0-.12,0-.18,0ZM120.66,269.25l-1.76,5.05,1.64-.13c.39-.03.71-.29.82-.66l1.26-4.16-1.97-.11Z"/>
          </g>
          <g>
            <path class="cls-16" d="M119.66,269.16l-5.72-.53c-.94-.09-1.84.38-2.31,1.2l-1.29,2.24,7.97.86,1.35-3.76Z"/>
            <path class="cls-14" d="M118.3,273.89s-.06,0-.09,0l-7.97-.86c-.32-.03-.61-.23-.76-.52s-.14-.64.02-.92l1.29-2.24c.61-1.06,1.75-1.71,2.97-1.69.09,0,.18,0,.26.01l5.72.53c.3.03.57.19.73.44.16.25.2.56.1.85l-1.35,3.76c-.14.39-.51.65-.92.64ZM111.93,271.26l5.74.62.67-1.87-4.48-.42c-.56-.05-1.1.23-1.38.71l-.55.95Z"/>
          </g>
          <g>
            <path class="cls-16" d="M114.35,272.52l-2,3.86c-.3.57-.84.97-1.47,1.07l-1.97.33c-.59.1-1.03-.52-.74-1.04l2.53-4.64,3.66.42Z"/>
            <path class="cls-14" d="M108.76,278.77c-.59,0-1.12-.32-1.42-.83-.3-.51-.31-1.13-.02-1.65l2.53-4.64c.19-.35.57-.54.96-.5l3.66.42c.32.04.59.23.74.51.15.28.15.62,0,.9l-2,3.86c-.43.84-1.25,1.43-2.17,1.58l-1.97.33c-.1.02-.2.02-.31.02ZM111.23,273.13l-1.97,3.61,1.45-.24c.33-.06.62-.27.77-.56l1.36-2.62-1.62-.19Z"/>
          </g>
          <g>
            <path class="cls-16" d="M109.1,275.25l-5.2-.08,1.24-2.79,5.33.26-1.37,2.6Z"/>
            <path class="cls-14" d="M109.09,276.22l-5.2-.08c-.32,0-.63-.17-.8-.45s-.2-.62-.07-.91l1.24-2.79c.16-.36.53-.59.93-.57l5.33.26c.33.02.63.2.79.49.16.29.17.64.02.93l-1.37,2.6c-.17.32-.51.52-.87.52ZM105.38,274.23l3.14.05.39-.73-3.16-.15-.38.84Z"/>
          </g>
          <g>
            <path class="cls-16" d="M104.49,273.5l-3.08,7.11c-.23.54-.82.84-1.39.72l-1.45-.31c-.79-.17-1.2-1.03-.85-1.76l3.44-6.94c.23-.47.74-.74,1.26-.68l1.09.14c.82.1,1.31.96.98,1.72Z"/>
            <path class="cls-14" d="M100.24,282.32c-.14,0-.29-.02-.43-.05l-1.45-.31c-.67-.14-1.22-.58-1.52-1.2-.3-.62-.29-1.32.01-1.93l3.44-6.94c.37-.76,1.16-1.23,2-1.22.08,0,.16,0,.24.02l1.09.14c.69.09,1.29.49,1.64,1.09.35.61.39,1.32.11,1.97l-3.08,7.11c-.35.82-1.16,1.34-2.05,1.33ZM102.27,272.6c-.1,0-.2.06-.24.15l-3.44,6.94c-.05.1-.02.19,0,.24.02.04.07.12.18.15l1.45.31c.13.03.25-.04.3-.16l3.08-7.11c.05-.11.01-.2-.01-.24-.02-.04-.08-.12-.2-.13l-1.09-.14s-.02,0-.03,0Z"/>
          </g>
          <g>
            <path class="cls-16" d="M99.97,274.77l-8.11,2.23.37,2.41,6.03-1.51,1.72-3.12Z"/>
            <path class="cls-14" d="M92.21,280.38c-.18,0-.37-.06-.52-.16-.23-.15-.38-.39-.42-.66l-.37-2.41c-.07-.48.23-.95.7-1.08l8.11-2.23c.37-.1.77.03,1.02.33.24.31.28.72.09,1.06l-1.72,3.12c-.13.24-.35.41-.61.47l-6.03,1.51c-.08.02-.17.03-.25.03ZM92.95,277.71l.08.51,4.59-1.15.41-.75-5.08,1.39Z"/>
          </g>
          <g>
            <path class="cls-16" d="M93.67,276.43l-1.47-.23c-.83-.13-1.68.16-2.26.77l-3.95,4.16.89,1.29c.59.85,1.76,1.06,2.6.46l5.86-4.16-1.68-2.28Z"/>
            <path class="cls-14" d="M88.37,284.18h0c-.91-.01-1.76-.47-2.28-1.22l-.89-1.29c-.26-.38-.22-.88.09-1.22l3.95-4.16c.68-.71,1.63-1.11,2.61-1.1.17,0,.33.02.5.04l1.47.23c.25.04.48.18.63.38l1.68,2.28c.15.21.22.47.18.73-.04.26-.18.48-.4.63l-5.86,4.16c-.49.35-1.07.53-1.67.52ZM87.24,281.22l.44.64c.17.24.43.38.72.38h0c.19,0,.37-.05.53-.16l5.06-3.59-.86-1.17-1.07-.17c-.51-.08-1.05.1-1.41.48l-3.41,3.59Z"/>
          </g>
        </g>
        <path class="cls-14" d="M142.63,288.43l-20.08,5.4c-1.53.41-3.11-.5-3.52-2.03h0c-.41-1.53.5-3.11,2.03-3.52l20.08-5.4c1.53-.41,3.11.5,3.52,2.03h0c.41,1.53-.5,3.11-2.03,3.52Z"/>
        <g class="cls-11">
          <path class="cls-14" d="M200.16,298.32c-3.07-4.74-4.77-11.14-5.71-17.2,1.88-.5,3.7-1.12,5.49-1.85-2.62-9.39-7.8-16.4-8.18-16.91-.51-.68-1.47-.89-2.24-.4-.4.25-.65.69-.75,1.15-1.92,9.33-12.79,11.63-12.86,11.64-11.21,2-22.3-10.36-22.41-10.48-.09-.1-.19-.18-.29-.26l.1-.04c1.41-.62,2.1-2.23,1.59-3.68-.27-.76-.62-1.71-.97-2.65-.11-.31-.27-.6-.48-.86-1.99-2.39-4.89-3.05-7.4-2.01l-4.58,1.91c2.34,3.86,4.88,7.31,7.62,10.34,3.07,3.39,6.39,6.23,9.94,8.52.04.03.08.05.12.08,6.57,4.31,6.05,14.15-.87,17.88-11.14,6-36.55,12.84-94.21,10.3,13.48,1.99,38.92,4.41,72.43,1.47,0,0,1.9-.06,5.07-.12-2.76,1.18-4.89,3.57-5.7,6.51,4.81-.18,10.14-.24,15.56-.23l3.28,5.88c.82,1.46,2.35,2.37,4.02,2.4l2.73.04c2.08.03,3.93-1.31,4.54-3.3l1.04-3.34,4.37.06,2.34,3.68c1.07,1.69,2.92,2.72,4.92,2.75l1.84.03c2.48.04,4.72-1.47,5.62-3.79l1.38-3.55c2.53.11,4.04.18,4.12.18.1,0,.21,0,.31-.01,5.01-.7,6.32-6.08,6.31-9.48.8-1.54,1.43-3.1,1.91-4.66Z"/>
        </g>
      </g>
      <g>
        <g>
          <path class="cls-16" d="M271.82,319.67c-6.56,0-12.93-1.29-18.92-3.82-5.79-2.45-10.99-5.95-15.45-10.42-4.46-4.46-7.97-9.66-10.42-15.45-2.53-5.99-3.82-12.36-3.82-18.92s1.29-12.93,3.82-18.92c2.45-5.79,5.95-10.99,10.42-15.45,4.46-4.46,9.66-7.97,15.45-10.42,5.99-2.53,12.36-3.82,18.92-3.82s12.93,1.29,18.92,3.82c5.79,2.45,10.99,5.95,15.45,10.42s7.97,9.66,10.42,15.45c2.53,5.99,3.82,12.36,3.82,18.92s-1.29,12.93-3.82,18.92c-2.45,5.79-5.95,10.99-10.42,15.45-4.46,4.46-9.66,7.97-15.45,10.42-5.99,2.53-12.36,3.82-18.92,3.82Z"/>
          <path class="cls-14" d="M271.82,224.13c25.92,0,46.93,21.01,46.93,46.93s-21.01,46.93-46.93,46.93-46.93-21.01-46.93-46.93,21.01-46.93,46.93-46.93h0ZM271.82,220.79c-6.79,0-13.37,1.33-19.57,3.95-5.99,2.53-11.36,6.16-15.98,10.77-4.62,4.62-8.24,9.99-10.77,15.98-2.62,6.2-3.95,12.78-3.95,19.57s1.33,13.37,3.95,19.57c2.53,5.99,6.16,11.36,10.77,15.98,4.62,4.62,9.99,8.24,15.98,10.77,6.2,2.62,12.78,3.95,19.57,3.95s13.37-1.33,19.57-3.95c5.99-2.53,11.36-6.16,15.98-10.77,4.62-4.62,8.24-9.99,10.77-15.98,2.62-6.2,3.95-12.78,3.95-19.57s-1.33-13.37-3.95-19.57c-2.53-5.99-6.16-11.36-10.77-15.98-4.62-4.62-9.99-8.24-15.98-10.77-6.2-2.62-12.78-3.95-19.57-3.95h0Z"/>
        </g>
        <g class="cls-11">
          <path class="cls-14" d="M298.5,232.45c5.25,7.58,8.32,16.77,8.32,26.68,0,25.92-21.01,46.93-46.93,46.93-9.91,0-19.1-3.08-26.68-8.32,8.47,12.24,22.6,20.25,38.61,20.25,25.92,0,46.93-21.01,46.93-46.93,0-16.01-8.02-30.14-20.25-38.61Z"/>
        </g>
        <g>
          <g>
            <path class="cls-14" d="M288.92,305.81c1.21-1.41,2.8-2.45,4.58-2.98l16.95-5.07c-6.84,9.87-17.36,16.99-29.58,19.37l8.05-11.32Z"/>
            <path class="cls-14" d="M280.87,318.56c-.48,0-.94-.24-1.2-.66-.32-.49-.3-1.13.04-1.61l8.05-11.32s.05-.07.08-.1c1.39-1.63,3.21-2.81,5.26-3.43l16.95-5.07c.58-.17,1.21.04,1.57.53.36.49.36,1.16.02,1.66-3.54,5.11-7.97,9.45-13.16,12.88-5.29,3.49-11.12,5.88-17.32,7.09-.09.02-.18.03-.27.03ZM290.04,306.69l-5.8,8.16c8.76-2.47,16.52-7.48,22.39-14.47l-12.73,3.81c-1.5.45-2.84,1.31-3.86,2.5Z"/>
          </g>
          <g class="cls-8">
            <path class="cls-14" d="M284.26,312.36c9.79-2.04,18.46-7.13,24.97-14.24l1.22-.36c-6.84,9.87-17.36,16.99-29.58,19.37l3.39-4.77Z"/>
          </g>
          <g class="cls-10">
            <path class="cls-3" d="M294.43,305.31c-1.46.44-2.76,1.28-3.76,2.43,0,0-5.45,6.63-5.94,6.77l5.48-7.7c1-1.15,2.3-1.99,3.76-2.43l12.1-3.62c-.43.5-.88.99-1.33,1.47l-10.3,3.08Z"/>
          </g>
          <g>
            <path class="cls-14" d="M307.27,260.21c.65-4.67,1.91-13.25,2.78-16.32,5.46,7.67,8.67,17.05,8.67,27.18,0,1.49-.07,2.96-.21,4.42l-9.49-9.88c-1.38-1.44-2.02-3.42-1.75-5.4Z"/>
            <path class="cls-14" d="M318.5,276.92c-.38,0-.76-.15-1.03-.44l-9.49-9.88c-1.69-1.76-2.47-4.16-2.13-6.59.67-4.82,1.94-13.38,2.82-16.51.15-.53.59-.93,1.13-1.02.54-.09,1.09.13,1.41.58,5.84,8.21,8.93,17.9,8.93,28.01,0,1.49-.07,3.03-.21,4.55-.05.56-.43,1.03-.95,1.22-.15.05-.31.08-.47.08ZM310.71,247.51c-.56,2.98-1.27,7.44-2.03,12.9-.22,1.55.28,3.08,1.36,4.21l7.22,7.52c0-.36.01-.71.01-1.06,0-8.39-2.26-16.47-6.56-23.56Z"/>
          </g>
          <g class="cls-8">
            <path class="cls-14" d="M307.27,260.21c.65-4.67,1.91-13.25,2.78-16.32.44.61.85,1.24,1.26,1.88-.65,3.7-1.3,8.23-1.72,11.19-.28,1.97.37,3.96,1.75,5.4l7.35,7.66c0,.35.02.7.02,1.06,0,1.49-.07,2.96-.21,4.42l-9.49-9.88c-1.38-1.44-2.02-3.42-1.75-5.4Z"/>
          </g>
          <g class="cls-10">
            <path class="cls-3" d="M317.02,271.6c-.33-6.84-1.94-13.61-5.15-19.59-.26-.48-.98-.38-1.09.16-.7,3.37-1.98,8.82-1.9,8.27.72-5.16,1.39-9.42,1.93-12.38,4.11,6.95,6.27,14.84,6.27,23.02,0,.2,0,.39,0,.59l-.06-.06Z"/>
          </g>
          <path class="cls-17" d="M286.95,266.07s.03.03.05.04c0,0-.01-.01-.05-.04Z"/>
          <g class="cls-8">
            <path class="cls-3" d="M286.95,266.07s.03.03.05.04c0,0-.01-.01-.05-.04Z"/>
          </g>
          <g>
            <path class="cls-14" d="M255.64,229.73l12.07,4.47c2.65.98,5.55.98,8.2,0l12.08-4.48c.97-.36,1.83-.95,2.51-1.71-5.73-2.49-12.04-3.87-18.69-3.87s-12.97,1.38-18.7,3.87c.69.77,1.55,1.36,2.52,1.72Z"/>
            <path class="cls-14" d="M271.81,236.36h0c-1.57,0-3.12-.28-4.59-.82l-12.07-4.47c-1.18-.44-2.25-1.17-3.09-2.11-.31-.34-.43-.81-.33-1.26.1-.45.41-.82.83-1.01,6.09-2.65,12.58-3.99,19.27-3.99s13.16,1.34,19.26,3.99c.42.18.73.56.83,1.01.1.45-.03.92-.33,1.26-.84.94-1.91,1.67-3.08,2.1l-12.08,4.48c-1.48.55-3.03.83-4.6.83ZM256.07,228.36s.04.02.07.02l12.07,4.47c1.16.43,2.37.64,3.6.64h0c1.23,0,2.45-.22,3.61-.65l12.08-4.48s.03-.01.05-.02c-5.02-1.85-10.3-2.79-15.72-2.79s-10.71.94-15.74,2.8Z"/>
          </g>
          <g class="cls-8">
            <path class="cls-14" d="M271.82,224.13c-2.42,0-4.8.19-7.12.54,4.9.27,9.61,1.3,14,2.96,1.02.39,1.09,1.83.1,2.31-.18.09-.37.17-.56.24l-10.67,3.96.16.06c2.65.98,5.55.98,8.2,0l12.08-4.48c.97-.36,1.83-.95,2.51-1.71-5.73-2.49-12.04-3.87-18.69-3.87Z"/>
          </g>
          <g class="cls-10">
            <path class="cls-3" d="M272,232.67l-10.22-3.78c-.48-.18-.46-.86.02-1.01,3.84-1.22,7.81-1.92,11.88-2.08-.62-.02-1.24-.04-1.86-.04-5.23,0-10.32.88-15.18,2.61l11.64,4.31c1.73.64,3.6.79,5.39.46-.57-.11-1.13-.26-1.67-.46Z"/>
          </g>
          <g>
            <path class="cls-14" d="M254.74,305.81c-1.21-1.41-2.8-2.45-4.58-2.98l-16.95-5.07c6.84,9.87,17.36,16.99,29.58,19.37l-8.05-11.32Z"/>
            <path class="cls-14" d="M262.79,318.56c-.09,0-.18,0-.27-.03-6.21-1.21-12.03-3.59-17.32-7.09-5.19-3.43-9.62-7.76-13.16-12.88-.35-.5-.34-1.16.02-1.66.36-.49.99-.71,1.57-.53l16.95,5.07c2.05.61,3.87,1.8,5.26,3.43.03.03.05.07.08.1l8.05,11.32c.34.48.35,1.11.04,1.61-.27.41-.72.66-1.2.66ZM237.02,300.39c5.88,6.99,13.63,12,22.39,14.47l-5.8-8.16c-1.03-1.18-2.36-2.05-3.86-2.5l-12.73-3.81Z"/>
          </g>
          <g class="cls-8">
            <path class="cls-14" d="M259.39,312.36c-9.79-2.04-18.46-7.13-24.97-14.24l-1.22-.36c6.84,9.87,17.36,16.99,29.58,19.37l-3.39-4.77Z"/>
          </g>
          <g class="cls-10">
            <path class="cls-3" d="M249.23,305.31c1.46.44,2.76,1.28,3.76,2.43,0,0,5.45,6.63,5.94,6.77l-5.48-7.7c-1-1.15-2.3-1.99-3.76-2.43l-12.1-3.62c.43.5.88.99,1.33,1.47l10.3,3.08Z"/>
          </g>
          <g>
            <path class="cls-14" d="M236.33,260.21c-.65-4.67-1.91-13.25-2.78-16.32-5.46,7.67-8.67,17.05-8.67,27.18,0,1.49.07,2.96.21,4.42l9.49-9.88c1.38-1.44,2.02-3.42,1.75-5.4Z"/>
            <path class="cls-14" d="M225.09,276.92c-.16,0-.32-.03-.47-.08-.53-.18-.9-.66-.95-1.22-.14-1.53-.21-3.06-.21-4.55,0-10.11,3.09-19.8,8.93-28.01.32-.45.87-.67,1.41-.58.54.09.98.49,1.13,1.02.88,3.13,2.15,11.69,2.82,16.51.34,2.42-.44,4.82-2.13,6.59l-9.49,9.88c-.27.29-.65.44-1.03.44ZM232.88,247.51c-4.3,7.09-6.56,15.17-6.56,23.56,0,.35,0,.71.01,1.06l7.22-7.52c1.08-1.13,1.58-2.66,1.36-4.21-.76-5.46-1.47-9.91-2.03-12.9Z"/>
          </g>
          <g class="cls-8">
            <path class="cls-14" d="M236.33,260.21c-.65-4.67-1.91-13.25-2.78-16.32-.44.61-.85,1.24-1.26,1.88.65,3.7,1.3,8.23,1.72,11.19.28,1.97-.37,3.96-1.75,5.4l-7.35,7.66c0,.35-.02.7-.02,1.06,0,1.49.07,2.96.21,4.42l9.49-9.88c1.38-1.44,2.02-3.42,1.75-5.4Z"/>
          </g>
          <g class="cls-10">
            <path class="cls-3" d="M226.57,271.6c.33-6.84,1.94-13.61,5.15-19.59.26-.48.98-.38,1.09.16.7,3.37,1.98,8.82,1.9,8.27-.72-5.16-1.39-9.42-1.93-12.38-4.11,6.95-6.27,14.84-6.27,23.02,0,.2,0,.39,0,.59l.06-.06Z"/>
          </g>
          <path class="cls-17" d="M285.12,264.78h0l1.83,1.29-1.83-1.29Z"/>
          <g class="cls-8">
            <path class="cls-14" d="M285.12,264.78h0l1.83,1.29-1.83-1.29Z"/>
          </g>
          <g>
            <path class="cls-14" d="M287.89,264.74l-13.51-9.53c-1.54-1.09-3.59-1.09-5.13,0l-13.51,9.53c-1.6,1.13-2.28,3.18-1.65,5.04l5.12,15.36c.61,1.82,2.31,3.04,4.22,3.04h16.78c1.91,0,3.62-1.23,4.22-3.04l5.12-15.36c.62-1.86-.05-3.91-1.65-5.04Z"/>
            <path class="cls-14" d="M280.2,289.62h-16.78c-2.54,0-4.78-1.62-5.58-4.02l-5.12-15.36c-.83-2.48.05-5.16,2.19-6.66l13.51-9.53c1-.7,2.17-1.08,3.39-1.08s2.39.37,3.39,1.08l13.51,9.53c2.14,1.51,3.01,4.19,2.19,6.66l-5.12,15.36c-.8,2.41-3.04,4.02-5.58,4.02ZM271.82,255.83c-.63,0-1.23.19-1.74.55l-13.51,9.53c-1.1.77-1.55,2.15-1.12,3.42l5.12,15.36c.41,1.23,1.56,2.06,2.86,2.06h16.78c1.3,0,2.45-.83,2.86-2.06l5.12-15.36c.42-1.27-.03-2.65-1.12-3.42l-13.51-9.53c-.51-.36-1.11-.55-1.74-.55Z"/>
          </g>
          <g class="cls-10">
            <path class="cls-3" d="M285.12,264.78l-10.64-7.51-1.04-.73c-.49-.34-1.06-.52-1.63-.52s-1.14.17-1.63.52l-3.29,2.32-5.58,3.94-4.64,3.27c-.1.07-.2.16-.29.24-.81.75-1.12,1.89-.76,2.96l5.12,15.36c.38,1.14,1.43,1.9,2.62,1.93-.06-.01.11-.06.43-.13-.11-.17-.2-.36-.27-.56l-5.12-15.36c-.4-1.19.03-2.48,1.05-3.2,0,0,1.08-.76,2.64-1.86,1.1.26,2.81-.2,4.43-1.28,1.73-1.17,2.83-2.71,2.87-3.86,1.07-.75,2.01-1.41,2.67-1.88.61-.43,1.42-.43,2.02,0,0,0,7.59,4.58,11.13,6.67-.03-.11-.06-.21-.1-.31Z"/>
          </g>
          <g class="cls-8">
            <path class="cls-14" d="M282.88,284.63l5.12-15.36c.39-1.17-.01-2.43-1-3.16,0,.02-.7-.39-1.77-1.02.16.54.18,1.13-.01,1.7l-1.24,3.71c-.83.49-1.66,1.68-2.12,3.21-.41,1.37-.44,2.67-.13,3.56l-1.63,4.88c-.38,1.15-1.46,1.93-2.68,1.93,0,0-11.23,1.83-13.61,2.35.03.04.05.09.08.13h16.32c1.22,0,2.29-.78,2.68-1.93Z"/>
          </g>
          <path class="cls-17" d="M287,266.11s-.03-.03-.05-.04l-1.83-1.29c.04.1.07.21.1.31,1.07.63,1.77,1.04,1.77,1.02Z"/>
          <g class="cls-8">
            <path class="cls-3" d="M287,266.11s-.03-.03-.05-.04l-1.83-1.29c.04.1.07.21.1.31,1.07.63,1.77,1.04,1.77,1.02Z"/>
          </g>
          <path class="cls-17" d="M263.43,286.56h.46s-.05-.09-.08-.13c-.39.08-.55.13-.38.13Z"/>
          <g class="cls-8">
            <path class="cls-3" d="M263.43,286.56h.46s-.05-.09-.08-.13c-.39.08-.55.13-.38.13Z"/>
          </g>
          <g class="cls-8">
            <path class="cls-14" d="M263.43,286.56h.46s-.05-.09-.08-.13c-.39.08-.55.13-.38.13Z"/>
          </g>
          <path class="cls-14" d="M273.25,254.38h-2.86v-19.75h2.86v19.75Z"/>
          <path class="cls-14" d="M290.3,305.69l-9.94-18.77,2.53-1.34,9.94,18.77-2.53,1.34Z"/>
          <path class="cls-14" d="M253.33,305.69l-2.53-1.34,9.94-18.77,2.53,1.34-9.94,18.77Z"/>
          <path class="cls-14" d="M288.98,268.6l-.64-2.79,19.33-4.42.64,2.79-19.33,4.42Z"/>
          <path class="cls-14" d="M254.66,268.6l-19.33-4.42.64-2.79,19.33,4.42-.64,2.79Z"/>
        </g>
      </g>
      <g>
        <g>
          <path class="cls-15" d="M145.48,230.02c-21.65.73-25.91-25.19-26.75-36.13-.2-2.57,1.83-4.76,4.4-4.76h18.68l-2.14-16.96h-29.86c-5.98,0-10.72,5.03-10.37,10.99,1.26,21.81,8.71,68.01,49.53,62.66l-1.99-15.8h-1.49Z"/>
          <path class="cls-14" d="M142.64,247.91c-8.6,0-16.16-2.46-22.48-7.3-5.36-4.11-9.88-9.99-13.41-17.46-6.28-13.28-8.35-29.03-8.98-39.9-.19-3.35.97-6.54,3.27-8.98,2.3-2.44,5.41-3.78,8.77-3.78h29.86c.84,0,1.55.63,1.66,1.46l2.13,16.87c.02.1.03.2.03.3,0,.92-.75,1.67-1.67,1.67h-18.68c-.77,0-1.49.31-2.01.88-.53.57-.79,1.31-.73,2.09.8,10.4,4.74,34.6,24.19,34.6h0c.28,0,.56,0,.84-.01.02,0,.04,0,.06,0h1.49c.84,0,1.55.63,1.66,1.46l1.99,15.8c.12.91-.53,1.75-1.44,1.87-2.24.29-4.44.44-6.54.44ZM109.8,173.84c-2.42,0-4.68.97-6.34,2.73-1.66,1.76-2.5,4.07-2.36,6.49.61,10.58,2.61,25.87,8.66,38.66,7.17,15.16,18.23,22.85,32.87,22.85,1.44,0,2.94-.07,4.46-.22l-1.6-12.66c-.3,0-.62.01-.92.01-5.23,0-9.85-1.5-13.74-4.47-3.26-2.49-6.02-6.02-8.2-10.49-3.76-7.7-5.1-16.61-5.57-22.72-.13-1.69.46-3.37,1.61-4.61,1.15-1.24,2.77-1.95,4.46-1.95h16.78l-1.72-13.62h-28.39Z"/>
        </g>
        <g class="cls-9">
          <path class="cls-3" d="M145.79,234.01l-.29-2.32c-4.94.16-9.03-.95-12.41-2.91,3.31,2.86,7.47,4.82,12.71,5.23Z"/>
        </g>
        <g class="cls-9">
          <path class="cls-3" d="M124.56,239.58c-15.53-12.85-19.27-39.43-20.12-54.13-.14-2.42.7-4.73,2.37-6.49,1.66-1.76,3.91-2.73,6.34-2.73h25.35l-.3-2.39h-28.39c-2.42,0-4.68.97-6.34,2.73-1.66,1.76-2.51,4.07-2.37,6.49.85,14.7,4.59,41.28,20.12,54.13,1.12.93,2.29,1.76,3.5,2.51-.05-.04-.1-.08-.15-.12Z"/>
        </g>
        <g>
          <path class="cls-15" d="M239.3,230.02c21.65.73,25.91-25.19,26.75-36.13.2-2.57-1.83-4.76-4.4-4.76h-18.68l2.14-16.96h29.86c5.98,0,10.72,5.03,10.37,10.99-1.26,21.81-8.71,68.01-49.53,62.66l1.99-15.8h1.49Z"/>
          <path class="cls-14" d="M242.14,247.91c-2.11,0-4.31-.15-6.54-.44-.91-.12-1.56-.95-1.44-1.87l1.99-15.8c.11-.84.82-1.46,1.66-1.46h1.49s.04,0,.06,0c.28,0,.56.01.84.01,19.45,0,23.39-24.2,24.19-34.6.06-.78-.2-1.52-.73-2.09-.52-.57-1.24-.88-2.01-.88h-18.68c-.48,0-.94-.21-1.25-.57-.32-.36-.46-.84-.4-1.31l2.14-16.96c.11-.84.82-1.46,1.66-1.46h29.86c3.35,0,6.47,1.34,8.77,3.78,2.3,2.44,3.46,5.63,3.27,8.98-.63,10.87-2.69,26.62-8.98,39.9-3.54,7.47-8.05,13.35-13.41,17.46-6.32,4.84-13.88,7.3-22.48,7.3ZM237.68,244.35c1.52.15,3.01.22,4.46.22,14.64,0,25.7-7.69,32.87-22.85,6.05-12.79,8.05-28.09,8.66-38.66.14-2.42-.7-4.73-2.36-6.49-1.66-1.76-3.91-2.73-6.34-2.73h-28.39l-1.72,13.62h16.78c1.69,0,3.32.71,4.46,1.95,1.15,1.24,1.74,2.92,1.61,4.61-.47,6.11-1.81,15.02-5.57,22.72-2.18,4.48-4.94,8.01-8.2,10.49-3.89,2.97-8.51,4.47-13.74,4.47-.3,0-.61,0-.92-.01l-1.6,12.66Z"/>
        </g>
        <g class="cls-11">
          <path class="cls-14" d="M263.16,239.61c12.81-14.06,16.12-37.81,16.92-51.68.34-5.97-4.4-10.99-10.37-10.99h-25.22l-1.54,12.19h18.68c2.58,0,4.6,2.19,4.4,4.76-.64,8.44-3.33,25.79-14.46,32.95h0c-3.41,4.21-8.05,7.27-14.37,7.86l.59-4.68-1.99,15.8c12.49,1.64,21.85-1.56,28.87-7.4-.49.41-1,.81-1.52,1.19Z"/>
        </g>
        <g>
          <path class="cls-15" d="M200.91,261.85l-8.67-.84v-.09l-.48.05-.48-.05v.09l-8.67.84s1.45,38.57-16.87,44.14h52.04c-18.31-5.58-16.87-44.14-16.87-44.14Z"/>
          <path class="cls-14" d="M217.78,307.66h-52.04c-.83,0-1.53-.61-1.65-1.42-.12-.82.37-1.6,1.17-1.84,3.75-1.14,6.91-3.99,9.39-8.46,2.07-3.74,3.67-8.58,4.76-14.41,1.87-10.04,1.54-19.52,1.54-19.61-.03-.88.63-1.64,1.51-1.73l8.14-.78c.27-.12.56-.17.86-.14l.32.03.32-.03c.3-.03.59.02.86.14l8.14.78c.88.08,1.54.84,1.51,1.73,0,.09-.33,9.62,1.55,19.67,1.09,5.81,2.69,10.65,4.76,14.38,2.48,4.46,5.63,7.3,9.37,8.44.79.24,1.29,1.03,1.17,1.84-.12.82-.82,1.42-1.65,1.42ZM172.17,304.32h39.17c-2.04-1.72-3.84-3.98-5.39-6.77-2.25-4.05-3.97-9.24-5.12-15.42-1.5-8.05-1.64-15.59-1.62-18.77l-7.14-.69c-.08,0-.16-.02-.24-.04-.05,0-.11,0-.16,0-.08.02-.16.03-.24.04l-7.14.69c.02,3.18-.12,10.72-1.62,18.77-1.15,6.18-2.87,11.37-5.12,15.42-1.55,2.79-3.35,5.05-5.39,6.77Z"/>
        </g>
        <g class="cls-9">
          <path class="cls-3" d="M187.64,264.9l7.13-.69c.08,0,.16-.02.24-.04.05,0,.11,0,.16,0,.08.02.16.03.24.04l3.79.37c0-.45,0-.87,0-1.22l-7.13-.69c-.08,0-.16-.02-.24-.04-.05,0-.11,0-.16,0-.08.02-.16.03-.24.04l-7.13.69c.05,6.57-.54,31.2-12.13,40.96h4.95c10.02-10.59,10.57-33.17,10.52-39.42Z"/>
        </g>
        <g>
          <path class="cls-15" d="M253.05,150.32h-122.58s-5.13,128.15,60.53,130.09c0,.01,0,.02,0,.02.25,0,.5,0,.76-.01.25,0,.5.01.76.01,0,0,0,0,0-.02,65.66-1.94,60.53-130.09,60.53-130.09Z"/>
          <path class="cls-14" d="M192.52,282.11c-.18,0-.36,0-.53,0-.07,0-.15,0-.22,0-.07,0-.15,0-.22,0-.18,0-.35,0-.53,0-.11,0-.22-.01-.33-.03-12.76-.45-23.82-5.59-32.87-15.29-7.42-7.95-13.56-19.06-18.24-33.01-3.72-11.08-6.55-23.99-8.4-38.36-3.14-24.42-2.37-44.95-2.36-45.15.04-.9.77-1.6,1.67-1.6h122.58c.9,0,1.63.71,1.67,1.6,0,.2.78,20.73-2.36,45.15-1.85,14.37-4.68,27.28-8.4,38.36-4.69,13.95-10.82,25.06-18.24,33.01-9.05,9.7-20.11,14.85-32.87,15.29-.11.02-.22.03-.33.03ZM132.09,152c-.11,5.26-.22,22.79,2.39,43.04,2.86,22.15,9.65,52.19,25.76,69.47,8.48,9.09,18.85,13.88,30.8,14.24.07,0,.14,0,.21.02.07,0,.14,0,.2,0,.09,0,.18,0,.27,0,.02,0,.03,0,.05,0,.09,0,.18,0,.27,0,.07,0,.14,0,.2,0,.07-.01.14-.02.21-.02,11.96-.35,22.32-5.14,30.81-14.24,16.13-17.29,22.91-47.35,25.77-69.52,2.61-20.24,2.49-37.74,2.38-42.99h-119.33Z"/>
        </g>
        <g class="cls-11">
          <path class="cls-3" d="M169.28,187.38c1.25,11.57-2.46,21.46-8.28,22.09-5.82.63-11.55-8.25-12.79-19.82-1.25-11.57,2.46-21.46,8.28-22.09s11.55,8.25,12.79,19.82Z"/>
        </g>
        <g class="cls-9">
          <path class="cls-3" d="M164.06,264.51c-16.12-17.28-22.91-47.31-25.76-69.47-2.61-20.25-2.5-37.78-2.39-43.04h-3.82c-.11,5.26-.22,22.79,2.39,43.04,2.86,22.15,9.65,52.19,25.76,69.47,8.48,9.09,18.85,13.89,30.8,14.24.07,0,.14,0,.21.02.07,0,.13,0,.2,0h.27s.02,0,.02,0h.3c.07,0,.13,0,.2,0,.07-.01.14-.02.21-.02.4-.01.8-.04,1.2-.06-11.45-.63-21.41-5.39-29.6-14.17Z"/>
        </g>
        <g>
          <path class="cls-15" d="M253.33,151.25h-123.14c-4.62,0-8.36-3.74-8.36-8.36h0c0-4.62,3.74-8.36,8.36-8.36h123.14c4.62,0,8.36,3.74,8.36,8.36h0c0,4.62-3.74,8.36-8.36,8.36Z"/>
          <path class="cls-14" d="M253.33,152.92h-123.14c-5.53,0-10.03-4.5-10.03-10.03s4.5-10.03,10.03-10.03h123.14c5.53,0,10.03,4.5,10.03,10.03s-4.5,10.03-10.03,10.03ZM130.19,136.2c-3.69,0-6.69,3-6.69,6.69s3,6.69,6.69,6.69h123.14c3.69,0,6.69-3,6.69-6.69s-3-6.69-6.69-6.69h-123.14Z"/>
        </g>
        <g class="cls-9">
          <path class="cls-3" d="M253.33,136.2h-123.14c-3.69,0-6.69,3-6.69,6.69,0,3.17,2.22,5.83,5.19,6.52-1.14-1.2-1.85-2.82-1.85-4.61,0-3.69,3-6.69,6.69-6.69h9.16c2.31,1.4,6.32,2.27,10.85,2.16,3.96-.1,7.49-.93,9.8-2.16h93.32c.52,0,1.02.06,1.5.18-1.22-1.28-2.94-2.09-4.84-2.09Z"/>
        </g>
        <g>
          <path class="cls-6" d="M237.01,319.93h-90.51c0-7.44,6.03-13.48,13.48-13.48h63.56c7.44,0,13.48,6.03,13.48,13.48h0Z"/>
          <path class="cls-14" d="M237.01,321.6h-90.51c-.92,0-1.67-.75-1.67-1.67v-5.19c0-5.49,4.47-9.96,9.96-9.96h73.94c5.49,0,9.96,4.47,9.96,9.96v5.19c0,.92-.75,1.67-1.67,1.67ZM148.17,318.26h87.17v-3.52c0-3.65-2.97-6.62-6.62-6.62h-73.94c-3.65,0-6.62,2.97-6.62,6.62v3.52Z"/>
        </g>
        <g class="cls-10">
          <path class="cls-3" d="M150.56,316.18c0-3.65,2.97-6.62,6.62-6.62,0,0,73.29-1.43,71.55-1.43h-73.94c-3.65,0-6.62,2.97-6.62,6.62v3.52h2.39v-2.09Z"/>
        </g>
        <g class="cls-11">
          <path class="cls-14" d="M238.42,134.53s-31.02,16.7-114.54,12.41l5.97,5.49h126.29l5.02-5.97.89-4.53-4.77-7.16-18.85-.24Z"/>
        </g>
        <g class="cls-11">
          <path class="cls-14" d="M253.08,151.51l-1.16.13-121.47-1.12c0,.23-.02.65-.04,1.26l.34,3.96,87.95,3.86c8.92.39,15.76,8.1,15.06,17-2.46,31.34-12.19,97.31-50.49,101.94l5.66,1.76c.68.05,1.37.09,2.06.11,0,.01,0,.02,0,.02.25,0,.5,0,.76-.01.25,0,.5.01.76.01,0,0,0,0,0-.02,61.96-1.83,60.89-116.02,60.57-128.91Z"/>
        </g>
        <g class="cls-11">
          <path class="cls-14" d="M124.27,172.02s2.47,15-2.78,16.91h11.07l-1.9-16.91h-6.38Z"/>
        </g>
        <g class="cls-11">
          <path class="cls-14" d="M132.47,226.64c-.11-.47,4.3,19.57-9.55,13.84,0,0,12.17,8.83,23.62,4.53l-6.65-15.95s-3.13,1.87-7.43-2.42Z"/>
        </g>
        <g class="cls-11">
          <path class="cls-14" d="M180.06,284.65s7.77,5.46,22.57,1.17l-.62-7.56s-7.67,4.29-21.78-.16l-.16,6.55Z"/>
        </g>
        <g class="cls-11">
          <path class="cls-14" d="M213.12,307.77s-3.96,8.78-64.91,9.07l-1.19,3.58h90.2l-.46-8.54s-2.12-6.42-23.64-4.11Z"/>
        </g>
      </g>
      <g>
        <g class="cls-11">
          <path class="cls-14" d="M221.14,191.46c-.62-1.89-2.3-3.12-4.29-3.12h-12.48c-.7,0-1.31-.45-1.53-1.11l-3.86-11.87c-.62-1.89-2.3-3.12-4.29-3.12s-3.67,1.22-4.29,3.12l-3.86,11.87c-.22.67-.83,1.11-1.53,1.11h-12.48c-1.99,0-3.68,1.22-4.29,3.12-.62,1.89.03,3.87,1.64,5.04l10.1,7.34c.57.41.8,1.13.58,1.8l-3.86,11.87c-.62,1.89.03,3.87,1.64,5.04.81.59,1.73.88,2.65.88s1.85-.29,2.65-.88l10.1-7.34c.57-.41,1.33-.41,1.89,0l10.1,7.34c1.61,1.17,3.69,1.17,5.3,0,1.61-1.17,2.25-3.15,1.64-5.04l-3.86-11.87c-.22-.67.02-1.39.59-1.8l10.1-7.34c1.61-1.17,2.25-3.15,1.64-5.04Z"/>
        </g>
        <g>
          <path class="cls-7" d="M195.19,173.39l3.86,11.87c.41,1.26,1.58,2.11,2.91,2.11h12.48c2.96,0,4.2,3.79,1.8,5.54l-10.1,7.34c-1.07.78-1.52,2.16-1.11,3.42l3.86,11.87c.92,2.82-2.31,5.16-4.71,3.42l-10.1-7.34c-1.07-.78-2.53-.78-3.6,0l-10.1,7.34c-2.4,1.74-5.63-.6-4.71-3.42l3.86-11.87c.41-1.26-.04-2.64-1.11-3.42l-10.1-7.34c-2.4-1.74-1.17-5.54,1.8-5.54h12.48c1.33,0,2.5-.85,2.91-2.11l3.86-11.87c.92-2.82,4.91-2.82,5.82,0Z"/>
          <path class="cls-14" d="M205.96,221.02c-.94,0-1.85-.3-2.64-.88l-10.1-7.34c-.28-.2-.6-.31-.95-.31s-.67.11-.95.31l-10.1,7.34c-.79.57-1.7.88-2.64.88-1.44,0-2.82-.71-3.68-1.89-.85-1.16-1.07-2.63-.62-4.02l3.86-11.87c.22-.67-.02-1.39-.59-1.8l-10.1-7.34c-1.61-1.17-2.25-3.15-1.64-5.04.62-1.89,2.3-3.12,4.29-3.12h12.48c.7,0,1.31-.45,1.53-1.11l3.86-11.87c.62-1.89,2.3-3.12,4.29-3.12s3.67,1.22,4.29,3.12l3.86,11.87c.22.67.83,1.11,1.53,1.11h12.48c1.99,0,3.67,1.22,4.29,3.12.62,1.89-.03,3.87-1.64,5.04l-10.1,7.34c-.57.41-.8,1.13-.59,1.8l3.86,11.87c.45,1.39.23,2.86-.62,4.02-.86,1.19-2.24,1.9-3.68,1.9ZM192.28,209.59c.96,0,1.88.3,2.65.86l10.1,7.34c.29.21.61.32.94.32.51,0,1.02-.27,1.34-.7.21-.29.42-.77.21-1.42l-3.86-11.87c-.61-1.86.05-3.89,1.64-5.04l10.1-7.34c.88-.64.67-1.54.58-1.8-.08-.26-.45-1.11-1.53-1.11h-12.48c-1.96,0-3.68-1.25-4.29-3.12l-3.86-11.87c-.34-1.03-1.26-1.11-1.53-1.11s-1.2.08-1.53,1.11l-3.86,11.87c-.61,1.86-2.33,3.12-4.29,3.12h-12.48c-1.09,0-1.45.85-1.53,1.11s-.29,1.16.58,1.8l10.1,7.34c1.59,1.15,2.24,3.18,1.64,5.04l-3.86,11.87c-.21.65,0,1.13.21,1.42.31.43.83.7,1.34.7.33,0,.64-.11.94-.32l10.1-7.34c.78-.56,1.69-.86,2.65-.86Z"/>
        </g>
        <g class="cls-9">
          <path class="cls-3" d="M203.89,190.65h12.15c.03-.31-.03-.58-.07-.71-.09-.26-.45-1.11-1.53-1.11h-12.48c-.71,0-1.38-.16-1.98-.46.79,1.39,2.27,2.28,3.92,2.28Z"/>
        </g>
        <g class="cls-9">
          <path class="cls-3" d="M170.52,191.76c.08-.26.45-1.11,1.53-1.11h12.48c1.96,0,3.68-1.25,4.29-3.12l3.86-11.87c.28-.88.99-1.06,1.36-1.1l-.23-.72c-.34-1.03-1.26-1.11-1.53-1.11s-1.2.08-1.53,1.11l-3.86,11.87c-.61,1.86-2.33,3.12-4.29,3.12h-12.48c-1.09,0-1.45.85-1.53,1.11-.08.26-.29,1.16.58,1.8l1.32.96c-.11-.41-.02-.79.03-.94Z"/>
        </g>
        <g class="cls-9">
          <path class="cls-3" d="M178.98,217.81l3.86-11.87c.61-1.86-.05-3.89-1.64-5.04l-.75-.54c.68,1.1.87,2.47.45,3.77l-3.86,11.87c-.34,1.03.36,1.64.59,1.8.17.12.67.43,1.29.28.01-.09.03-.17.06-.26Z"/>
        </g>
        <g class="cls-11">
          <path class="cls-14" d="M192.49,172.75v24.34l7.23-10.42-5.02-14.42-2.2.5Z"/>
        </g>
        <g class="cls-11">
          <path class="cls-14" d="M192.49,197.09l-15.18,22.14,15.66-8.78-.48-13.36Z"/>
        </g>
        <g class="cls-11">
          <path class="cls-14" d="M168.15,191.36l24.34,5.73-12.54,4.91-11.8-10.63Z"/>
        </g>
        <g class="cls-11">
          <path class="cls-14" d="M192.49,197.09l15.75,21-3.82-15.75-11.93-5.25Z"/>
        </g>
        <g class="cls-13">
          <path class="cls-14" d="M192.49,197.09l23.86-5.25-11.93,10.5-11.93-5.25Z"/>
        </g>
      </g>
      <path class="cls-14" d="M57.08,265.17s-.03-.08,0-.1c.03-.03.08-.03.1,0,.03.03.03.08,0,.1-.03.03-.08.03-.1,0Z"/>
      <path class="cls-14" d="M335.15,175.08c.39,1.03-.13,2.18-1.15,2.57-1.03.39-2.18-.13-2.57-1.15s.13-2.18,1.15-2.57c1.03-.39,2.18.13,2.57,1.15Z"/>
      <path class="cls-14" d="M135.21,8.95c.59-.59.22-1.98-.82-3.56-.31-.47-.31-1.08,0-1.55,1.04-1.58,1.41-2.98.82-3.56-.59-.59-1.98-.22-3.56.82-.47.31-1.08.31-1.55,0-1.58-1.04-2.98-1.41-3.56-.82-.59.59-.22,1.98.82,3.56.31.47.31,1.08,0,1.55-1.04,1.58-1.41,2.98-.82,3.56.59.59,1.98.22,3.56-.82.47-.31,1.08-.31,1.55,0,1.58,1.04,2.98,1.41,3.56.82Z"/>
      <path class="cls-14" d="M45.61,247.77c.66,0,1.23-.99,1.53-2.45.09-.44.43-.77.86-.86,1.46-.3,2.45-.88,2.45-1.53s-.99-1.23-2.45-1.53c-.44-.09-.77-.43-.86-.86-.3-1.46-.88-2.45-1.53-2.45s-1.23.99-1.53,2.45c-.09.44-.43.77-.86.86-1.46.3-2.45.88-2.45,1.53s.99,1.23,2.45,1.53c.44.09.77.43.86.86.3,1.46.88,2.45,1.53,2.45Z"/>
    </g>
  </g>
</svg>